# xmcd CD database file
#
# Track frame offsets:
#	150
#	27762
#	43465
#	65913
#	77787
#	86235
#	100985
#	116374
#	131824
#	147511
#	163589
#	178738
#
# Disc length: 2689 seconds
#
# Revision: 1
# Processed by: cddbd v1.4PL0 Copyright (c) Steve Scherf et al.
# Submitted via: CDex 1.40Beta5
#
DISCID=b20a7f0c
DTITLE=B.B.King - Grandes Exitos de...
DYEAR=1900
DGENRE=Blues
TTITLE0=Sweet 16
TTITLE1=Evil Child
TTITLE2=Everyday I have the blues
TTITLE3=Paying the cost to be the boss
TTITLE4=A new way of driving
TTITLE5=B.B. Boogie
TTITLE6=How blue can you get
TTITLE7=The letter
TTITLE8=Long Nights
TTITLE9=The other night blues
TTITLE10=It´s my own fault baby
TTITLE11=You´ve done lost your good thing now
EXTD=ID3G:   0
EXTT0=
EXTT1=
EXTT2=
EXTT3=
EXTT4=
EXTT5=
EXTT6=
EXTT7=
EXTT8=
EXTT9=
EXTT10=
EXTT11=
PLAYORDER=
